<svg xmlns="http://www.w3.org/2000/svg" xmlns:xlink="http://www.w3.org/1999/xlink" width="1640" zoomAndPan="magnify" viewBox="0 0 1230 693.000001" height="924" preserveAspectRatio="xMidYMid meet" version="1.0"><defs><g/><clipPath id="1522c4cc23"><path d="M 0.886719 82.371094 L 403.652344 82.371094 L 403.652344 485.136719 L 0.886719 485.136719 Z M 0.886719 82.371094 " clip-rule="nonzero"/></clipPath><clipPath id="05478949d2"><path d="M 33.183594 114.671875 L 435.953125 114.671875 L 435.953125 517.4375 L 33.183594 517.4375 Z M 33.183594 114.671875 " clip-rule="nonzero"/></clipPath><clipPath id="cad9f2358b"><path d="M 65.484375 146.96875 L 468.25 146.96875 L 468.25 549.738281 L 65.484375 549.738281 Z M 65.484375 146.96875 " clip-rule="nonzero"/></clipPath></defs><g fill="#520864" fill-opacity="1"><g transform="translate(523.845793, 425.765273)"><g><path d="M 50.609375 72.53125 C 40.484375 72.53125 32.609375 69.832031 26.984375 64.4375 C 21.367188 59.039062 18.5625 51.617188 18.5625 42.171875 C 18.5625 33.628906 20.863281 26.992188 25.46875 22.265625 C 30.082031 17.546875 36.210938 15.1875 43.859375 15.1875 C 45.660156 15.1875 47.457031 15.351562 49.25 15.6875 C 51.050781 16.019531 52.289062 16.1875 52.96875 16.1875 L 57.359375 16.875 L 57.359375 62.421875 C 63.878906 61.296875 69.613281 57.695312 74.5625 51.625 C 79.507812 45.550781 85.019531 35.09375 91.09375 20.25 L 97.84375 3.375 L 10.125 -158.5625 L -6.75 -163.625 L -6.75 -168.6875 L 35.421875 -168.6875 C 47.117188 -168.6875 56.394531 -166.269531 63.25 -161.4375 C 70.113281 -156.601562 76.019531 -149.460938 80.96875 -140.015625 L 123.140625 -62.078125 L 158.5625 -153.5 L 133.265625 -163.625 L 133.265625 -168.6875 L 195.671875 -168.6875 L 195.671875 -163.625 L 168.6875 -153.5 L 101.21875 20.25 C 94.019531 38.6875 86.367188 52.007812 78.265625 60.21875 C 70.171875 68.425781 60.953125 72.53125 50.609375 72.53125 Z M 50.609375 72.53125 "/></g></g></g><g fill="#520864" fill-opacity="1"><g transform="translate(712.770018, 425.765273)"><g><path d="M 94.46875 5.0625 C 81.875 5.0625 70.570312 2.421875 60.5625 -2.859375 C 50.550781 -8.148438 42.734375 -15.066406 37.109375 -23.609375 C 31.484375 -32.160156 28.671875 -41.160156 28.671875 -50.609375 L 28.671875 -158.5625 L 8.4375 -163.625 L 8.4375 -168.6875 L 52.296875 -168.6875 C 72.535156 -168.6875 82.65625 -158.566406 82.65625 -138.328125 L 82.65625 -50.609375 C 82.65625 -36.441406 85.1875 -25.585938 90.25 -18.046875 C 95.3125 -10.515625 101.210938 -6.75 107.953125 -6.75 C 116.273438 -6.75 123.8125 -11.25 130.5625 -20.25 C 133.039062 -23.613281 135.628906 -28.109375 138.328125 -33.734375 L 138.328125 -158.5625 L 118.078125 -163.625 L 118.078125 -168.6875 L 212.546875 -168.6875 L 212.546875 -163.625 L 192.296875 -158.5625 L 192.296875 1.6875 L 188.9375 1.6875 C 172.507812 1.6875 160.023438 -2.8125 151.484375 -11.8125 C 147.660156 -15.851562 144.960938 -20.347656 143.390625 -25.296875 C 140.234375 -19.679688 136.519531 -14.625 132.25 -10.125 C 122.125 0 109.53125 5.0625 94.46875 5.0625 Z M 94.46875 5.0625 "/></g></g></g><g fill="#520864" fill-opacity="1"><g transform="translate(932.057066, 425.765273)"><g><path d="M 13.5 -8.4375 L 109.640625 -160.25 L 48.921875 -160.25 C 48.921875 -147.882812 45.207031 -135.398438 37.78125 -122.796875 C 34.863281 -118.078125 31.265625 -113.691406 26.984375 -109.640625 L 16.875 -109.640625 L 16.875 -168.6875 L 170.375 -168.6875 L 170.375 -160.25 L 74.21875 -8.4375 L 138.328125 -8.4375 C 138.328125 -21.257812 141.925781 -33.742188 149.125 -45.890625 C 152.269531 -51.054688 155.976562 -55.441406 160.25 -59.046875 L 170.375 -59.046875 L 170.375 0 L 13.5 0 Z M 13.5 -8.4375 "/></g></g></g><g fill="#520864" fill-opacity="1"><g transform="translate(1115.920848, 425.765273)"><g><path d="M 13.5 -5.0625 L 33.734375 -10.125 L 33.734375 -158.5625 L 13.5 -163.625 L 13.5 -168.6875 L 57.359375 -168.6875 C 77.597656 -168.6875 87.71875 -158.566406 87.71875 -138.328125 L 87.71875 -10.125 L 107.953125 -5.0625 L 107.953125 0 L 13.5 0 Z M 57.359375 -188.9375 C 50.609375 -188.9375 44.984375 -191.179688 40.484375 -195.671875 C 35.984375 -200.171875 33.734375 -205.796875 33.734375 -212.546875 C 33.734375 -219.296875 35.984375 -224.914062 40.484375 -229.40625 C 44.984375 -233.90625 50.609375 -236.15625 57.359375 -236.15625 C 64.097656 -236.15625 69.71875 -233.90625 74.21875 -229.40625 C 78.71875 -224.914062 80.96875 -219.296875 80.96875 -212.546875 C 80.96875 -205.796875 78.71875 -200.171875 74.21875 -195.671875 C 69.71875 -191.179688 64.097656 -188.9375 57.359375 -188.9375 Z M 57.359375 -188.9375 "/></g></g></g><g clip-path="url(#1522c4cc23)"><path fill="#520864" d="M 202.746094 82.371094 C 91.261719 82.371094 0.886719 172.742188 0.886719 284.230469 C 0.886719 395.707031 91.261719 486.089844 202.746094 486.089844 C 314.222656 486.089844 404.605469 395.707031 404.605469 284.230469 C 404.605469 172.742188 314.222656 82.371094 202.746094 82.371094 Z M 333.589844 415.0625 C 316.585938 432.0625 296.800781 445.40625 274.769531 454.722656 C 251.964844 464.367188 227.730469 469.261719 202.746094 469.261719 C 177.757812 469.261719 153.523438 464.371094 130.726562 454.722656 C 108.691406 445.410156 88.902344 432.066406 71.902344 415.0625 C 54.90625 398.074219 41.5625 378.273438 32.242188 356.246094 C 22.59375 333.4375 17.710938 309.214844 17.710938 284.230469 C 17.710938 259.234375 22.59375 235.011719 32.242188 212.207031 C 41.5625 190.175781 54.90625 170.378906 71.902344 153.386719 C 88.902344 136.386719 108.691406 123.042969 130.726562 113.714844 C 153.523438 104.082031 177.757812 99.191406 202.746094 99.191406 C 227.730469 99.191406 251.964844 104.082031 274.769531 113.714844 C 296.800781 123.042969 316.585938 136.386719 333.589844 153.386719 C 350.589844 170.378906 363.921875 190.175781 373.25 212.207031 C 382.894531 235.011719 387.773438 259.234375 387.773438 284.230469 C 387.773438 309.21875 382.894531 333.4375 373.25 356.246094 C 363.921875 378.273438 350.589844 398.074219 333.589844 415.0625 Z M 333.589844 415.0625 " fill-opacity="1" fill-rule="nonzero"/></g><g clip-path="url(#05478949d2)"><path fill="#520864" d="M 235.042969 114.671875 C 123.5625 114.671875 33.183594 205.042969 33.183594 316.53125 C 33.183594 428.003906 123.5625 518.390625 235.042969 518.390625 C 346.519531 518.390625 436.902344 428.003906 436.902344 316.53125 C 436.902344 205.042969 346.519531 114.671875 235.042969 114.671875 Z M 365.886719 447.359375 C 348.886719 464.363281 329.097656 477.707031 307.070312 487.019531 C 284.265625 496.667969 260.03125 501.558594 235.042969 501.558594 C 210.058594 501.558594 185.824219 496.667969 163.023438 487.019531 C 140.988281 477.707031 121.203125 464.363281 104.199219 447.359375 C 87.203125 430.371094 73.859375 410.574219 64.539062 388.542969 C 54.894531 365.738281 50.007812 341.515625 50.007812 316.53125 C 50.007812 291.53125 54.894531 267.308594 64.539062 244.503906 C 73.859375 222.476562 87.203125 202.675781 104.199219 185.6875 C 121.203125 168.683594 140.988281 155.339844 163.023438 146.015625 C 185.824219 136.378906 210.058594 131.488281 235.042969 131.488281 C 260.03125 131.488281 284.265625 136.378906 307.070312 146.015625 C 329.097656 155.339844 348.886719 168.683594 365.886719 185.6875 C 382.890625 202.675781 396.222656 222.476562 405.546875 244.503906 C 415.195312 267.308594 420.074219 291.53125 420.074219 316.53125 C 420.074219 341.515625 415.195312 365.738281 405.546875 388.542969 C 396.21875 410.574219 382.890625 430.371094 365.886719 447.359375 Z M 365.886719 447.359375 " fill-opacity="1" fill-rule="nonzero"/></g><g clip-path="url(#cad9f2358b)"><path fill="#520864" d="M 267.34375 146.96875 C 155.859375 146.96875 65.484375 237.339844 65.484375 348.828125 C 65.484375 460.304688 155.859375 550.6875 267.34375 550.6875 C 378.820312 550.6875 469.203125 460.304688 469.203125 348.828125 C 469.203125 237.339844 378.820312 146.96875 267.34375 146.96875 Z M 398.1875 479.660156 C 381.183594 496.660156 361.398438 510.003906 339.367188 519.320312 C 316.5625 528.964844 292.328125 533.859375 267.34375 533.859375 C 242.355469 533.859375 218.121094 528.96875 195.324219 519.320312 C 173.289062 510.007812 153.5 496.664062 136.5 479.660156 C 119.503906 462.671875 106.160156 442.871094 96.839844 420.84375 C 87.191406 398.035156 82.308594 373.8125 82.308594 348.828125 C 82.308594 323.832031 87.191406 299.609375 96.839844 276.804688 C 106.160156 254.773438 119.503906 234.976562 136.5 217.984375 C 153.5 200.984375 173.289062 187.640625 195.324219 178.3125 C 218.121094 168.679688 242.355469 163.789062 267.34375 163.789062 C 292.328125 163.789062 316.5625 168.679688 339.367188 178.3125 C 361.398438 187.640625 381.183594 200.984375 398.1875 217.984375 C 415.1875 234.976562 428.519531 254.773438 437.847656 276.804688 C 447.492188 299.609375 452.371094 323.832031 452.371094 348.828125 C 452.371094 373.816406 447.492188 398.035156 437.847656 420.84375 C 428.519531 442.871094 415.1875 462.671875 398.1875 479.660156 Z M 398.1875 479.660156 " fill-opacity="1" fill-rule="nonzero"/></g></svg>